<svg id="Group_1488" data-name="Group 1488" xmlns="http://www.w3.org/2000/svg" width="316" height="82.623" viewBox="0 0 316 82.623">
  <text id="_100_" data-name="100+" transform="translate(87 37)" fill="#1453ff" font-size="35" font-family="Poppins-Medium, Poppins" font-weight="500"><tspan x="0" y="0">100+</tspan></text>
  <text id="projects_complete" data-name="projects complete" transform="translate(93 72)" fill="#1453ff" font-size="24" font-family="Poppins-Medium, Poppins" font-weight="500"><tspan x="0" y="0">Projects Complete</tspan></text>
  <g id="check_circle_outline-24px_1_" data-name="check_circle_outline-24px (1)">
    <path id="Path_252" data-name="Path 252" d="M0,0H82.623V82.623H0ZM0,0H82.623V82.623H0Z" fill="none"/>
    <path id="Path_253" data-name="Path 253" d="M52.228,21.21,29.541,43.9,17.182,31.572l-4.854,4.854L29.541,53.639,57.082,26.1ZM36.426,2A34.426,34.426,0,1,0,70.852,36.426,34.439,34.439,0,0,0,36.426,2Zm0,61.967A27.541,27.541,0,1,1,63.967,36.426,27.533,27.533,0,0,1,36.426,63.967Z" transform="translate(4.885 4.885)" fill="#1453ff"/>
  </g>
</svg>
